<mxfile host="app.diagrams.net" agent="Mozilla/5.0 (Windows NT 10.0; Win64; x64) AppleWebKit/537.36 (KHTML, like Gecko) Chrome/132.0.0.0 Safari/537.36" version="24.8.4">
  <diagram name="Page-1" id="W8LpEyUcqjXtMtJ1AP8E">
    <mxGraphModel dx="1593" dy="867" grid="1" gridSize="10" guides="1" tooltips="1" connect="1" arrows="1" fold="1" page="1" pageScale="1" pageWidth="827" pageHeight="1169" math="0" shadow="0">
      <root>
        <mxCell id="0" />
        <mxCell id="1" parent="0" />
        <mxCell id="nmjLRdU93uv3N3d86Dsw-2" style="edgeStyle=orthogonalEdgeStyle;rounded=0;orthogonalLoop=1;jettySize=auto;html=1;fontColor=#FF0000;labelBackgroundColor=none;verticalAlign=middle;strokeColor=#b85450;fillColor=#f8cecc;" edge="1" parent="1" source="nmjLRdU93uv3N3d86Dsw-1" target="nmjLRdU93uv3N3d86Dsw-3">
          <mxGeometry relative="1" as="geometry">
            <mxPoint x="340" y="160" as="targetPoint" />
          </mxGeometry>
        </mxCell>
        <mxCell id="nmjLRdU93uv3N3d86Dsw-11" style="edgeStyle=orthogonalEdgeStyle;rounded=0;orthogonalLoop=1;jettySize=auto;html=1;entryX=0;entryY=0.75;entryDx=0;entryDy=0;fillColor=#f8cecc;strokeColor=#b85450;" edge="1" parent="1" source="nmjLRdU93uv3N3d86Dsw-1" target="nmjLRdU93uv3N3d86Dsw-10">
          <mxGeometry relative="1" as="geometry">
            <Array as="points">
              <mxPoint x="20" y="160" />
              <mxPoint x="20" y="503" />
            </Array>
          </mxGeometry>
        </mxCell>
        <mxCell id="nmjLRdU93uv3N3d86Dsw-1" value="DESARROLADOR&lt;div&gt;MOBILE&lt;/div&gt;" style="rounded=1;whiteSpace=wrap;html=1;fillColor=#f8cecc;strokeColor=#b85450;" vertex="1" parent="1">
          <mxGeometry x="60" y="130" width="120" height="60" as="geometry" />
        </mxCell>
        <mxCell id="nmjLRdU93uv3N3d86Dsw-6" style="edgeStyle=orthogonalEdgeStyle;rounded=0;orthogonalLoop=1;jettySize=auto;html=1;fillColor=#d5e8d4;strokeColor=#82b366;" edge="1" parent="1" source="nmjLRdU93uv3N3d86Dsw-3" target="nmjLRdU93uv3N3d86Dsw-1">
          <mxGeometry relative="1" as="geometry">
            <Array as="points">
              <mxPoint x="720" y="370" />
              <mxPoint x="120" y="370" />
            </Array>
          </mxGeometry>
        </mxCell>
        <mxCell id="nmjLRdU93uv3N3d86Dsw-3" value="MANTENIMIENTO" style="rounded=1;whiteSpace=wrap;html=1;fillColor=#d5e8d4;strokeColor=#82b366;" vertex="1" parent="1">
          <mxGeometry x="660" y="130" width="120" height="60" as="geometry" />
        </mxCell>
        <mxCell id="nmjLRdU93uv3N3d86Dsw-5" value="&lt;span style=&quot;color: rgb(33, 33, 33); font-family: Inter, system-ui, -apple-system, BlinkMacSystemFont, &amp;quot;Segoe UI&amp;quot;, Roboto, Oxygen, Ubuntu, Cantarell, &amp;quot;Fira Sans&amp;quot;, &amp;quot;Droid Sans&amp;quot;, Helvetica, Arial, sans-serif; white-space-collapse: preserve; background-color: rgb(255, 255, 255);&quot;&gt;URL: api/v1/login&lt;/span&gt;&lt;div&gt;&lt;font face=&quot;Inter, system-ui, -apple-system, BlinkMacSystemFont, Segoe UI, Roboto, Oxygen, Ubuntu, Cantarell, Fira Sans, Droid Sans, Helvetica, Arial, sans-serif&quot; color=&quot;#212121&quot;&gt;&lt;span style=&quot;white-space-collapse: preserve; background-color: rgb(255, 255, 255);&quot;&gt;Parámetros en formato JSON:&lt;/span&gt;&lt;/font&gt;&lt;/div&gt;&lt;div&gt;&lt;font face=&quot;Inter, system-ui, -apple-system, BlinkMacSystemFont, Segoe UI, Roboto, Oxygen, Ubuntu, Cantarell, Fira Sans, Droid Sans, Helvetica, Arial, sans-serif&quot; color=&quot;#212121&quot;&gt;&lt;span style=&quot;white-space-collapse: preserve; background-color: rgb(255, 255, 255);&quot;&gt;Método: POST&lt;/span&gt;&lt;/font&gt;&lt;/div&gt;&lt;div&gt;&lt;div style=&quot;background-color: rgb(255, 255, 255); font-family: IBMPlexMono, &amp;quot;Courier New&amp;quot;, monospace, Consolas, &amp;quot;Courier New&amp;quot;, monospace; line-height: 18px; white-space: pre;&quot;&gt;&lt;div&gt;{&lt;/div&gt;&lt;div&gt;&amp;nbsp; &lt;span style=&quot;color: #a31515;&quot;&gt;&quot;email&quot;&lt;/span&gt;: &lt;span style=&quot;color: #0451a5;&quot;&gt;&quot;ejemplo@ejemplo.com.ar&quot;&lt;/span&gt;,&lt;/div&gt;&lt;div&gt;&amp;nbsp; &lt;span style=&quot;color: #a31515;&quot;&gt;&quot;pass_mobile&quot;&lt;/span&gt;: &lt;span style=&quot;color: #0451a5;&quot;&gt;&quot;abc123&quot;&lt;/span&gt;&lt;/div&gt;&lt;div&gt;}&lt;/div&gt;&lt;br&gt;&lt;/div&gt;&lt;/div&gt;" style="text;html=1;align=left;verticalAlign=middle;whiteSpace=wrap;rounded=0;" vertex="1" parent="1">
          <mxGeometry x="270" y="50" width="310" height="80" as="geometry" />
        </mxCell>
        <mxCell id="nmjLRdU93uv3N3d86Dsw-7" value="&lt;font face=&quot;Inter, system-ui, -apple-system, BlinkMacSystemFont, Segoe UI, Roboto, Oxygen, Ubuntu, Cantarell, Fira Sans, Droid Sans, Helvetica, Arial, sans-serif&quot; color=&quot;#212121&quot;&gt;&lt;span style=&quot;white-space-collapse: preserve; background-color: rgb(255, 255, 255);&quot;&gt;Respuesta en formato JSON:&lt;/span&gt;&lt;/font&gt;&lt;div&gt;&lt;div&gt;&lt;div style=&quot;background-color: rgb(255, 255, 255); font-family: IBMPlexMono, &amp;quot;Courier New&amp;quot;, monospace, Consolas, &amp;quot;Courier New&amp;quot;, monospace; line-height: 18px; white-space: pre;&quot;&gt;&lt;br&gt;&lt;/div&gt;&lt;/div&gt;&lt;/div&gt;&lt;div style=&quot;background-color: rgb(255, 255, 255); line-height: 18px; white-space: pre; font-family: IBMPlexMono, &amp;quot;Courier New&amp;quot;, monospace, Consolas, &amp;quot;Courier New&amp;quot;, monospace;&quot;&gt;&lt;div style=&quot;line-height: 18px;&quot;&gt;&lt;div&gt;{&lt;/div&gt;&lt;div&gt;&lt;span style=&quot;color: #a31515;&quot;&gt;&lt;span style=&quot;white-space: pre;&quot;&gt;&#x9;&lt;/span&gt;&quot;message&quot;&lt;/span&gt;: &lt;span style=&quot;color: #0451a5;&quot;&gt;&quot;Autenticación exitosa&quot;&lt;/span&gt;,&lt;/div&gt;&lt;div&gt;&lt;span style=&quot;white-space: pre;&quot;&gt;&#x9;&lt;/span&gt;&quot;token&quot;: &quot;fewgweg&quot;&lt;br&gt;&lt;/div&gt;&lt;div&gt;}&lt;/div&gt;&lt;/div&gt;&lt;/div&gt;" style="text;html=1;align=left;verticalAlign=middle;whiteSpace=wrap;rounded=0;" vertex="1" parent="1">
          <mxGeometry x="259" y="260" width="310" height="80" as="geometry" />
        </mxCell>
        <mxCell id="nmjLRdU93uv3N3d86Dsw-8" value="1" style="text;html=1;align=center;verticalAlign=middle;whiteSpace=wrap;rounded=0;labelBackgroundColor=none;strokeColor=default;fillColor=none;fontStyle=1" vertex="1" parent="1">
          <mxGeometry x="190" y="20" width="60" height="30" as="geometry" />
        </mxCell>
        <mxCell id="nmjLRdU93uv3N3d86Dsw-9" value="2" style="text;html=1;align=center;verticalAlign=middle;whiteSpace=wrap;rounded=0;labelBackgroundColor=default;fontStyle=1;textShadow=0;labelBorderColor=none;strokeColor=default;" vertex="1" parent="1">
          <mxGeometry x="300" y="210" width="60" height="30" as="geometry" />
        </mxCell>
        <mxCell id="nmjLRdU93uv3N3d86Dsw-10" value="3" style="text;html=1;align=center;verticalAlign=top;whiteSpace=wrap;rounded=0;labelBackgroundColor=default;fontStyle=1;textShadow=0;labelBorderColor=none;strokeColor=default;" vertex="1" parent="1">
          <mxGeometry x="150" y="481" width="60" height="30" as="geometry" />
        </mxCell>
        <mxCell id="nmjLRdU93uv3N3d86Dsw-13" value="Consultar los endpoints necesarios enviando el token como bearer token" style="text;html=1;align=center;verticalAlign=middle;whiteSpace=wrap;rounded=0;fillColor=none;strokeColor=default;" vertex="1" parent="1">
          <mxGeometry x="230" y="470" width="290" height="59" as="geometry" />
        </mxCell>
        <mxCell id="nmjLRdU93uv3N3d86Dsw-15" value="" style="shape=image;verticalLabelPosition=bottom;labelBackgroundColor=default;verticalAlign=top;aspect=fixed;imageAspect=0;image=data:image/png,iVBORw0KGgoAAAANSUhEUgAAA54AAADQCAIAAADgVykxAAAgAElEQVR4Ae297W8bx3r3f/8rC+SgRNVz1OqFixS1UOBIfTLrFxH6RkV6Q4BfCNhbEWEwEAjnMIYFljAgGFGiqHHoAyWKkIgNrFRqYjC9mSo6DpimBC1XoBvolqGokgOlqmN3TyCWYakzv981s7M7u9ylSIqy+PAVDHO5Ow/XfGZ297vXXjP8Xwx/1Qn8vxzDv5MQqI4XR0EABEAABEAABECgeQT+V/OK6tCS/s/vM/w7CYEOHRdoFgiAAAiAAAiAQAsSgLRtwU6BSSAAAp1D4Pvvv++cxqAlIAACINDyBCBtW76LYCAIgEA7E4C0befeg+0gAALtRwDStv36DBaDAAi0EQFI2zbqLJgKAiDQAQQgbTugE9EEEACB1iUAadu6fQPLQAAEOpEApG0n9iraBAIg0DIEIG1bpitgCAiAQFcQgLTtim5GI0EABM6KAKTtWZFHvSAAAt1JANK2O/sdrQYBEHhGBCBtnxFoVAMCIAACnACkLQYCCIAACJwiAUjbU4SLokEABECgggCkbQUS7AABEACB5hGAtG0eS5QEAiAAAscTgLQ9nhFSgAAIgEDDBCBtG0aHjCAAAiDQAAFI2wagIQsIgAAI1EoA0rZWUkgHAiAAAs0gAGnbDIooAwRAAAR8CEDa+oDBbhAAARA4FQKQtqeCFYWCAAiAgCAAaYuRAAIgAALPkgCk7bOkjbpAAAS6jgCkbdd1ORoMAiBwpgQgbc8UPyoHARDodAKQtp3ew2gfCIBAaxGAtG2t/oA1IAACHUagMWn7448/GobxPf5AAARAAATqJABp22G3UTQHBECgtQg0IG0PDw8Nw/jxxx9/85vftFZjYA0IgAAItDwBSNuW7yIYCAIg0M4E6pW2wl8LUdvOfQ7bQQAEzpIApO1Z0kfdIAACHU+gXmkr/LUdjwUNBAEQAIFTIlCLtN1cCOv0dz1t1G5FsWAYRqEoM3yXmtR1/da6/O79uX+HUnn9Taa+886CvSAAAiDQygTqlbbff/89XLat3KGwDQRAoMUJ1CBtH5jKVtfj6ae1NkeI1Mk7+2aG2qTt48+nI1ci9C8SIoE7FjK/XpleO6i1aqQDARAAgdYh0IC0bR3jYQkIgAAItB2B46Vt/j3y2cbj5E+1pSpj7KhEjtkfSrLN/KtRKDFWKhibt6O6rkdvbxp8D1OkbekHgxy6Vj6Z3/Ep0l9LSWnMKnLJ6o6oOirviFfsMMkqUiQ+tlYrPTZAAARAoDkEIG2bwxGlgAAIgEBtBI6TtkfriTFdH0usH6TjpFWX9qxy3epzPUGO1sQ6Y+u31JgC2iOlbWptWgQ36PpYdOFBwSrMveEunG3fjui6PvW5jIkw1qakPby6yZVsKj5m1ht5Y23/SBb5OJOgrPLQ25nH1iGZBJ8gAAIgcEoEIG1PCSyKBQEQAAFPAsdJ2/tcr1KMrJG+LrWkKMmtPm1pa3yTTb9NcjLydjqb3SY1KhKPhSbfTWez2fS75NN1CGWXde7CGdtbojxvZoS31/icK9uPSGmbSjoUnftsc/Pr9NxVXjY/xI42FyZIRs99sf3Y2MvyeqO3t1214SsIgAAInBIBSNtTAotiQQAEQMCTQHVpW8q+RTIxcZ/yGp9xv62QjJZatWMGbGnLGPOOtb2yZIrKozwP4OUOXU+7KqWtqW1nMzQ1rZR5k+IjxNwyIW3jn0mHrhDBoi4uzSO2lt1euqLr4YVNz0qxEwRAAASaTQDSttlEUR4IgAAIVCNQVdoWs7Njuh5KZB5TdKzxzQrF21ry1K0+a5C2tg7eT10zoxe8rXMXTqn2PiK/LensYmZWWbGBS9voyrdWSbYlQmGHJvjUND5BLURBC4ksYhIsWtgAARA4TQKQtqdJF2WDAAiAgJtANWlb+pIEZMVfeOFrXopbfdqC0tdrezJpKwN210vcF2u5abm0jSx9Y7XNtkRI2/hi1vmX37dWJbMyYQMEQAAEToEApO0pQEWRIAACIOBLoIq0FS/9w7Mf27Iw8x75bcPv5ak8IW2vJLeFB/Rb7tPl08hOS9qKeN/wwgJNU5takwEIIiDBjqD9hkflChnNRbBpMBld2NvY3DtueQZfWjgAAiAAAnUSgLStExiSgwAIgMCJCPhLW7EEQXghr767f8rXSTB3bicnyKUbujY79+7s5OVwmBY/MMNnTY/v1em5d9doqpfbxdtIQIIV70u1yvlk9jSysUh8MZ39LBnnVplrKRztpyhCOEyHrOlrb2b8l2Y4EU1kBgEQAAEXAUhbFxB8BQEQAIFTJeArbcWksYrfDzPWbpCwFBPLCg+Xpi7zgIXQZPLBtiN89mh/7Q2x5lY8ddA0acuE4Nb12a/sdXGF1zbxf61FvkKTi3lbvBa2U6YlpMMjb6a27WOnyhaFgwAIgABrurT98ccfl5eXL1++/Gd/9mc//elPf/azn/35n/95OBz+h3/4h//5n/8BcRAAARDocgK+0rZ2LqWirTLduUqFY36awZ3huO9iaYWx2awSLGtKW76MQ+kH/tsNlcWYv+tQeQB7QAAEQOAUCTRX2q6urp4/f/65557767/+67/927/9lP/Nzs6++OKLzz333B/90R998cUXp9gYFA0CIAACLU+gCdL2WbXRWP9oLnGdgh7C7zsW71Kl7bMyBvWAAAiAQE0EmihtX3vtteeeey4Wi3mW+Z//+Z/RaPS5555LJBI1WYZEIAACINCJBNpH2spQBMcvjfEugbTtxJGJNoFAhxDwlKFV2uaX/rXXXjt37tzGxkaVvIyxr7766nd/93fn5uaqJ8NREACBExEoFw1DeX2sllXlkJoM26dGoH2k7akhQMEgAAIgcHoE/KSqX42e6T/77LPf/u3f/vprsfKiX1Zzfy6X+63f+q1cLndMumxM02LuRPvJEW0kuX9M1toPH3xI5R3UnqGRlAfJEU2Lu5vCWC6mef6JBlKuWLaR+jo5T9HwVWwnb3Y21sBgoCHk0blkzTMZXd7N3ro5qGkjy2Jkl4vGE1vmOg555250r+c5W1mY057K48ftqX7iHJebjueop5t3GamlSsaYNXghbWskhmQgAAIg0AgBT6lapaDK9IeHh+fOnfN0xA7wv8rSpqamfv7znx8zq8zzNtlR0pYVnxgG/5d/Z1gbns/Lr8Uy6SJI28qRc7pisYOkLTO2ctldU8+6TiX1UCXik+xxVeRXVI3J/LKz6ieOfzb7yJlIWzqjRz6kpw1IW7srsAUCIAACTSdQKVWrV1GZfmFh4fd///crdeqDBw+ET/LBgweuMn/961/39PR8+umnrv2Or573v0ppSx4gEohcDjoKYIdcOHq9lhWasliu8KtVKY2XTW95SXfKv0Pbh1gUNogSHJX6eW1lId7uPSltTZNsr5uVjZxAT2wDrP2+DfcvysxbNIxD2hQlO1oqUhSFFncYYzIpGrsb+QMLTpWUwgxeEZUquslRJK9M7LeS8ZT2M4CavjIlVz9k/+HB1oZUeFZdjt4RDeP/W9LWzyQvgJVeW9/RpVRlQRbAHUe8ajEhex2ivOZ+ZXBaUQdFw0hHNS26+sTsXEosCFheRKt61x6/6qz0fMMeLZXnbOUwqLRHlCaY+3WNs0brm/ejTiUNK4O54ZS2Ir01oqpk9wJyTNfIqotP8vPD2vA7eeOJAWkrqeATBEAABE6BQKVUrV5JZfqRkZErV6545vpH/ud56NKlS5FIxPOQubPyNkk/t+MISChuJIb7tN6BYPD5gNY3Or8p707l3VQkGOg5F7wYHOzTel9M5OURdrAauxDQ+gaDF871XphK/tIOSLBLu3Au0DeafGjlscyUclPuyMVNN4z5ijOTHOnpHbwYPNej9erzW6YsO4G0/TA1MWAWGLgwlbN03mE+8WKvaEVA6x1d2DJtdTQ8EJzMyN8OYrufTAR7AucuEJDAhdiqVxAGV2mrufhg4PlgcKBX6wkq6Yr5m8O9GhkTfD4QuDCRMt/nciYfJEd6NM18yVs95fLo8+eocK13dCmfmx3qfZ53X09w5p4EbrdisFcLBCdXhWLO3RQpqVsnPuEN8EkpuiPxYWyQnq54WIudMjjY5yAjO5MxkrbzqZvcJNPCXeuoE+BEipbEpz+HtPUfXWZq8WF1Hw2V3tEPZPcxv24SkJdH+3oHLw4SO315Vz5FWIYFB3oDF2KZJ7wOKdMPPpkQtKnjbvKoGHmIPZwPaqPLIj1lMlIvaf2z/EevfC1xtIMdbs3rvRqdaIO9faPLH6hBRN7DwMMeR9c4z1ZnbZXfKqWtfRbTNWE4sSEHlSOzIm3LRiY+GLiUFDyd2ZVLii8Q3jXpXGyg+smVS/DLAp1ZFycgbR29gS8gAAIg0FwClVK1evmV6Z9//vm///u/d+Xa29v7kv89fPjQdUh8TSQSf/EXf+F5yNx5rLR9khrvGYxJ8bb7wUjgfCzHb2S7K6O9L8zkhRAsb82/YAlQug8NxjOGkAU7XJCZsba7lOwDU8rsfjgevLxs6xrTJn4bU+JfndI2QMJCaMnybvJSoD8uzGGZSVsxeDa58g4tAhK0AVngYS42oA0tCIuM1EsBZyv6Y3zJyeLdaOB8LCMafpib+svgjFiK8sHMYM9IcodXzu/lnkGlZAYpLbPdRiY2KEMSi9mpwYHxZVPPFVdfCQTMAFNiYtvJ2DEpR+aFhjDS0YCmjZgtKmYm+7WXUgJeftaWGszIxAas7nN72f1TUjimpVfIRepHRu0PGnIBZQyMBHqiGT6iivembICsuPXLEW1gJs9HkSJtq4wutRq2uzCkjZhaiu0lxy9IsL7d5IRsZGLntfFPOK1iJtrTHxNWsmLuxlBwlo86S78yLtnVsHX7EI350RX5+GOkxrWheTFIfC1RG1LMxfttyLynrPh4/2Hgtsf/bFXr8t52nzj7yyPKNeEgHe3vGU/Z2t0qxJK2RXqQk7qW+V9SmC8Q6hp6Ej7u5BJnNAISrD7ABgiAAAicFoFKqVq9psr0gUDgV7/6lSvXa6+9JqIRwuGw65D4mkqlent7PQ+ZO0lneP6Z8z+23gkGrpq3dJ5la/5iYOqeR5GZSTmLi9xU0VXFj5N/vV+KvPzMeW3CFFcehfBddBtTp3Y5pa1UGyL3xky/rEtJ5l2y+w5NqaiukSXbubr1TtCcrvRwPigllyiOUNwgh5zxybh2MSEkl1JTcfUVSxbz3cXVqDXHSElHZpyfMb12tN9Y1rXgO1tKEnNz94NhyY3sNGVWZTrGfFM6HfDcY8rn85FtUmDxAmnHJXNClANUtZS5mNY/owTC+JBxWpyNaT1T9nQ/TolPNiKA/a8rYMr5mfMBMRLIJKHyq40uR0X52X7t5ZT5fGUfqdJN7sGQi2uixxnp0WBCaalZnq1f3VLSRi1czvqy0LbGyqj2wjx/rKliiW0uIz7BeeXRlUpQNbSSVhkGFfYoyRij50C/aXnOhPTNMR4Yo3NENocnpgEs1KQzr5C2Tl3Ls/tcUqoAoa6xXN1Uy5PlUScWWTXvRMTaShz4BAEQAIHTIlApVavXVJm+p6fns88+88wV5n+eh9Lp9O/8zu94HjJ3krTlAYJychXFlT6YJ0nFX4XT3Z3e7tn/zvXYtzHj4er8jejoRf5iXZM3y2xMG06qvlj11ljMTgV7tN6B4fHJ+dWH0pXlMJFuTv7S1nGb5zd+21Sv+6tdtGqG3Ouuy5ZQpMDopbz97/mAKTTLu8viBfFoNPFhTgaZUlEUtmFnoZfaakNEpVTFK6ry51pBTv8v7uWSN2PjLwaDF84FePQB191uO8lFWktKP2lL+3nYg2UtxQaYa2U4QFVLabnlJE5vMvKo+FTlIO2xCuFtzKiJD5YvmYPN0S/+o0vNzA5zUzwqZvhybD69JTVulW5yQ87F5ZBmbHdptFcLnLswGr2ZzO3J5za1La4XIOoh0mFilJIKlB7cKpYo7SD+sYyMi6ADzop8hoE7GT1CeZ6tSlV+m47xwFgurg3Ldw4iS+5GwEso05PP0IvBgDakSnP/S0oVIHTI8bjMtuYvepxcdXhtd3Z20un04uLi+/gDARAAga4ksLi4mE6nd3bE+zC/W4Dv/kqp6puUH6hMPzAw8P7773vmqiJtFxYW/viP/9gzl7nTeZs0dyp6KBfXBq8uZ+5m1H/i1p6/GQz0Dcc+XM1s7BpGMWPpgGxMuzivOiFdt0ZWPNjKLs9Pjg/1aYMynEAx0kNhSM3qdhNyd9qpSds/iS47G565J3UsY8Wd/OqHieilc4GekSSFEJDZozdXVVCZu5mtihe1RENGBYhWk3+RS1sjNdHbExy/uZzJbh08Ke7ai6a5mdSaUulKqsvSW7R/NLHq6NbM3S3xqOHor2opLVWq9J4HGcdR2wZzt1VIpXzxkbbVR5daW7l48DC3vBAbf6FXG4jxKOoq3eSGrEpbKvVwN59OJl4ZOdcTGPmQP7tZPCsUp7OZFF9LY5g0rhV3W8USpQ3E3ynqlHPWfxi4pa3v2apU5bfpGA9c2rpeMvhLW23w6urq64MSPtXgf0mpAoQOOd9a0PufyufGWqXtvXv3UqnUo0ePymX1qcGPAPaDAAiAQAcSKJfLjx49SqVS9+55vYw/rsWVUrV6jsr0L7300uXLlz1zVZG2Y2NjfrnMopTbpF24oocoYPFlh4uxqEzbUm+59ivOnfkh+/5N7sXMVenvJH0gPV6Msc1EUBuvCE+g25jUsjJmgL9h5B4+y+nF7c3GAj2xXG13J9cdmuenutQbJKURDlRqxcSqNaVMtbxcLNqNKK6+LF6VUjODv1QkvSOZTZeqOG+GkFo2iPbm4o7IBOX9stvOWlMqXUl1WVKMgkeDCfU3PYtFa60GB6hqKS1VKlvnaLJFRh4Vn5YN5m67kFw84AhI4BGuIuDB2S+WOqwYXWpVZbtFrLyVuCi0UZVu8oBsOSOLyrgtpifMkBK1La5TST0kopBfmM84HPZVLFGaISAoP9JCp6T0r/sPA5e0paZ5n61KVX6bjvHgjK/gWSiY2Kk7RUmyZ3lMvBVr639JqQKE7HeMDdfAtk2nlOJs8p1GtrOzk0qlIGptaNgCARDoYgLlcjmVSjXgu62UqtUpVqb/6KOP+vr6XIt/iWlk/5v/ffnll3t7cj45L/3w8PBnP/vZJ598Uq0u1/1YJFVvG3zOx8TKltA9B+monPNEjihrlpWRnRmyAhJoDnjAupMZmdhQX6/5Kt9ITfT0x1a5c7Bc3FoY0QYSihg0LSUv5kB0dccwnuxmbowH7RlOuZgW6H1eziZ5QpOfBs3J5gepV4ZHf2kv0lDZatcdmidwqxlbQvFWDL68bM6r31+NSjNoNf6ReXP/k9XY+YAZPUyTYIZmsqJ1Rv4de8qdagxV0dc7JKbZlYtbH4wE5Cyc/Kw9Yaj4cHn8PC2H4BmQUGtKtStVacsYTQ77y5mccCob+XllQh6Fd56Pre6bq1f5p5TaRTbPl4xMQJ9OzacEJDD2cH5IG4zdFQAPVq8OBtTwXzNmw390qbUwI/VyoH9yVcQhFB/Oj2iDppT37Sb3YLC9tpsJ6nKxmkfZWJ3sD7zMn8jUtlAQ8Mj8plz8Sz3EFXi0p7e3LxC9az8V8VlTxw+Y/Cx5Pc2pkzvJ0ed7A1La+g8DgqnYU+Vsrf/EOVyN9gRGPuDXhDIf5wNT5lxORxcow4NP0By8wVP5XlKYPxDqmt6+IZNCcSt5KRBwvvqQNfOI7cnVgyqLf6XT6UePHskM+AQBEACBbifw6NGjdDpdL4VKqVq9hMr0//3f//0Hf/AHiURCzWhNIxMTwV577TX16PT09M9//vMff/xR3enePlbaMlbcTE5coLBP+usbTtwTb60Z20tZ+3v15aQ6MUWsu8Rz0ApKGfsHqMS6P6KwwIWJZc8QDzs7Lbm16lr8ayNDK4vRX+9Q3FyyirGtxIBmCg53I83vdUpbxg63kpGgbHnv8M2cGa8p1lESbdCU/YwdZGaG+8wDfq3j6nl164PRXp4w8Py4vZ6a3XAt4Fg0za26WI0p/aUtKx9kXh8WNmhaIBixF7pi5d3llyjS15y445tS0S6CsT8Zu09cms+OtaUkxj1aaU6AOXcpYa6/4Vr8S2m7a3TZtZCXna/dJgrrCU6s2OHfPt3khmxLW3NRKlEWrZyVEyeBoy3F3OtDxFNILschsosmU1a8YfCxxNEOplClxek26U2DOQ9PaaNzwJCadtjje7Y2dOLsLNvn/gtRa402p93O4bGXtNZV8L2k+J5BvGtWt5K6edKce8la9c9ZJ2Nsb3n8eRq8vl7bxcVFuGwrsGEHCIBA9xIol8uLi4v1tr9SqlYvwTP93bt3e3p6/u3f/q16XnE0l8sFAoF/+Zd/qSVxTWkOvX98lVaSV9/aq2X5ZKG77hPv0tTcTHnrL/fbN0sqQfF/yQSn8MkXkLde1tsV8HXyPfaL32LwY6KqNCrBqw3+3OzaxVbtKd055Xe/1lEnOW2rklIWZn76k3El9PtaU+fW2Hb+IwUNdJOHbeKnBPx7lrKoURAeRXjvqnYSWTn8RguJeP+zyWlPTRVZNR63cdLS/M2uKNl+6qg45G1lsej/a2R+sxa8S8JeEAABEOgCAg1cGD2lahVUfulnZmbOnTv3r//6r1XyMsa+/PLL3/u933v33XerJ2vDo7a0bUPjTZOVmIf2bQQsB4FnScCWtrXX6uu1beAKXnutSAkCIAAC7UiggQujn1T1a36V9G+88cZPfvKT69evP336tDL7f/zHf1y9evW555575513Ko+2/x5I2/bvQ7QABOomAGlbNzJkAAEQAIE6CJyttGWM/dM//dMf/uEf/uQnPxkZGXnrrbf+8R//8c6dO7Ozs3/1V3/13HPPDQ4O/vM//3Md7UFSEAABEOg4AvDadlyXokEgAAKnRuDMpS0PgywuLy+HQqE//dM//elPf/qzn/0sGAxGIpE7d+5ggsSp9TwKBgEQaBsCkLZt01UwFARA4MwJtIK0PXMIMAAEQAAEWpkApG0r9w5sAwEQaC0CkLat1R+wBgRAAAQqCEDaViDBDhAAARDwIQBp6wMGu0EABECgVQhA2rZKT8AOEACB1icAadv6fQQLQQAEupwApG2XDwA0HwRAoA4CkLZ1wEJSEAABEDgLApC2Z0EddYIACLQnAUjb9uw3WA0CINBFBE5B2tLvVlt/vYMXh6Mf5s1f3z5LsLmYZZRjYyS5X8WsTlgkvErzcAgEQKAuApC2deFCYhAAARB49gROSdoOzz8wjCeG8eRg6+78xIA2OJt/9m1z1Ui/TM3/5d8Z1obn8/Kr5w9My7yQtpIEPkEABBiDtMUoAAEQAIEWJ3BK0tbpCs3EtPMzDm1bLnKVWaykYwpQ9Ui5aBj0vbi/ld+xDxQNLlXtHYz5pHTVQr/iPZI8cO1lzKNA5pS2wmyrRrMVhkMcFw3jkIoWDXEcqqgRO0AABE6bwH/913/duHHj17/+dWVFv/71r/0OVSYWeyBt/cic5X555T9LG1A3CIBAyxA4A2m7+8lEsCdw7kJwsE8LXIitWhpzLzVxIRB4Phi8ONir9Q7/Mm9qyGxMG0kk44MURxDPEbrDfOLFXq1vMHjhXEDrHV3Y8k3pBdpD2joLHL4pq1albdnIxAcDl5K7ZSq0uJEY7tN6B4LB5wNa3+j8pmkCFT6ZXNZ7eweogVrf6PKelxHYBwIg8EwIGIZx9erVV1991aVunz59+uqrr169etUwjNoN6Q5p28iPth/DkDwHllfgmLT1Ht66OahpI8vWrcQzP0XKxfj9o/LwKbS3shLsAQEQeFYETknaWgEJxsHD5ehA7+jSrtmiBzODPSPJHf6Ni0XpQN1dHu0del1qyofzQ5p0/WZjmhYY+UCWwIzUS4HBeMaM391JjvT0x7L8oulO6U2xQtoeLF9SCjxYjZ4PjH8i7naW17aYU3Qte5Ia7xmMZcw74u4HI4HzsRw3gQrX5KGykZns115K1XHn9DYZe0EABBonYKnb/1/OilKePn36i1/8ol5dy7olIKH5Uq/iqtt4b3rkNLZy2d1jhDOkrQc47AKBziRwStJWnah1buhqMm+Ku+LqK9rQgiVSGSuuRj2ftsuZmKbFshx61hnP8HA+2BPNKJexrXeCgRv8adyV0qfL3BfZh/NBbXT5iZ3aWBmVgltIW6euZYxqvOowYf5iYOoelUCFX1LcB9mY1jPl4yqwa8QWCIDAqRIwDCMajf7iF794+vTp999/35iu7Uxpe8gjuxwuVSlt/SPHmMjFg6+sjqPQMf5Sy9xzKB21h4Y9w0G5dItkxSfOXDyayy6nKOZIOLKZFRWN3Y38QdkORbMsMc1TG2VJW1Ggw3LZXiu/Z7AZP2rGrTmyW9mwAQIg0BIETknaSocrvbnfXb06qA1McacmXUHoJf5F699gryVhy8ZWen7qldHgRf4q39pPAQlKaCyJxXNKCTwkQCRwpfQh7Ja22Zg2nFTkNmP3pgLmq6tcTOsfejEY0IbmH9rF5eIaD5ywWhE816ONfEjvw6hwETUhkpMj2e8tmF0gtkAABE6bwNOnT6PR6KuvvnrlypVXX33V8uDWVW9HBSSUd1ORYIBfTgf7tN4XE/KtGZd66VxswCtyzM412KsFgpGUiNFizC0Qc3Hzqpi7ya/SvKKJT1xxA+Tv6H9dmYvxYKZfG+evuor5m8O9Wu/gRcoeuDCRMlez4RV9kBzp0TTxck+98tvm0X3EbhSXtqvZ2CCZwS2fXCVZTH8Oy/2CzexAuIvBcz29ox/IQLi6BhASgwAInD6B05e2jLFyfua8cMHSFWT05mrmbkb9t/WE0iQuBHpfjCXTmfyOYRSdXluXtP2T6LKzhMw9/jZKvcD5s/OQthfnt9T0DmmrDV5dXX19UBuI5eSTei6uDV5dVpuQuZvJ7ZFfAdJWBYltEGgpAk+fPr1y5Uo0Gm1M13aY1yRs7lsAACAASURBVHZ3ZbT3hZm8uKyVt+ZfMJWokHqBvlGvyLFi7oY95YAdbiVGrAVwHAKRMWZJW/PCqF7GlWFRvBsNnJ/JS3dvfrZfvBMrZqcGB8blXIXi6iuBgOk1oIq0ASsijDHlyu/bKJK2gV7dnCzBjExswNFe8yWhf7DZ7gJFyZk6fi85fsGyTWkMNkEABFqAwDORtmxr/qKQtsXM1UDwl4qMLBeL4kUTXXeiq9ZLJ1dAgnpN3Jkf0iZWpcokhocym3KBq8LWLW2pakdAAl3CzABZGWtb3k1eClhzyCjBy7ax5JuW9kDaViGPQyBw5gQeP3785IkSflSnQR3ltXW2PTMp5+lyL2a/umKjkRrXgvTmikLI+mc2lJwbM/09sRwJ0walLSvnYj2yTPKDBKJ35SVdqWf3g2H5+o4qktMheAr/K7/dKLrO9888sEs0PhnXTKeGbXmVYLP8bL/2cqoF1mi3m4AtEAABTwKnJG3taWTG/tbqjaGAFR1L08iGZrI89rZs5N+RE7Do0mnPvsq9PqT5BSSIaWQvL5tvg/ZXo9bDt/8FTm28W9oy7g+4lBQFGg/mR3oGp+6Ja6uUtiSgc7EBbfAGD6zgT/YTK1siIOwgHR2Uk94gbVXU2AaBDiPQYdLWeLg6fyM6ejEYHOi1l6DhIlXxNDBmuSdIIMYy0sNKnXuwTIspUqiALRBFp9fotWWM5V/vNz2yGzP9ige3uJdL3oyNvxjki+FQ9AGPZnBXpHptGWPejXJ5TxhjNMtCRIvZBVYJNmOHuakLAa1vcPhybD69BY3bYac2mtNJBE5J2qrTyHoHR2cyyi9+HWRmhvvMBIELE8titQTG+KJgYn/v6FLSMY1M9dqSytxKRoIBs4ze4Zs58yrToLRlrLy7bBXYNxT9xIq8VaQtY2wvOSIXRihuJicuSBP6hhP3zIlykLaddHqgLSDgItBJ0jZ/MxjoG459uJrZ2KUgsLjDa+twizIZVFYpEJshbdkD0/Wbf73firs1UhO9PcHxm8uZ7NbBk+KuvR65rUTN3lGu/L6NIstFCK/sUgrq9ZC2fsFmlK1cPHiYW16Ijb/Qq4aoyRLxCQIg0BIETkHa1tYummcqX+LbOfi8VHturH3Aa6uuxF4FuPfRzFmPF2HuZOr3w1NcrFGtB9sgAAKtQKCDpC0JRNU1a7+75/5XGdjKqZMu5K5ZNXiAHzEjZWmbChSzafkRx9eKd2U8if3f7vwLgejqaqyHhz3w/bm4FnzHjl5zBSSYobGiBFva+jeKmhBQcykmUS5xqEqwGSsX7XtTeStx0RkUYbcFWyAAAmdM4Myk7Rm3G9WDAAiAQP0EOkjaGqmXNGuBcCM7Q0Fgyjyt3r4hc6JWcYtmGsj1ubfeGaIpXCJcmeLBAiNL5qIHFI06EF3dMYwnu5kb40ErVEzE6J6Pre7L5cAqyO8uDAX6egMvzFuvzGg+mfUTOQ+Xx8/XEpDg3yiStr29L8g2PUyO9Fjrl9vSVqxZ7hVsZqReDvRProo3hMWH8yPaYGKT5lnkfzk6/ErKte5DRfuwAwRA4NkRgLR9dqxREwiAQLsT6CBpyxj/AUgzCExfTjqnkcVW+Y8+8sO9+vyW9ZKtbORoTS7+13NuxP7tRvk7kXSEfiRyVS7+RZ1e3l1+6VxA0xyz09TR8GR5VFOdvmppWuDCVPKX1g+kK0pUlGB7bf0bRdI2tvqAfkWS/yk/Y+mMEvYLNjMX/xK5e4ITK0KEk+TVBhK2e1ltFLZBAATOggCk7VlQR50gAALtSaCjpC3vAu/YMNk7vkerxIOZq97IItTPKofUZOp2Q0FfvmbzeFmj4kci1ArNbb96+W9V2JEJHjmxCwRA4IwJQNqecQegehAAgTYi0HnS9mzh/83f/I1wg7bp/4aBn1E/2xGE2kHAgwCkrQcU7AIBEAABTwKQtp5YsBMEQAAEWocApG3r9AUsAQEQaHUCkLat3kOwDwRAoOsJQNp2/RAAABAAgZoJQNrWjAoJQQAEQOBsCEDang131AoCINCOBCBt27HXYDMIgEBXEfCVtouLi+Wy+nOKXYUFjQUBEAABN4Fyuby4uOjee9z377///rgkjuP1pndkxhcQAAEQ6HoCvtI2nU4/evSo6/kAAAiAAAiYBB49epROp+vFUa9UrTd9vfYgPQiAAAh0NgFfabuzs5NKpeC47ezuR+tAAARqJFAul1Op1M7OTo3prWT1StV601sVYQMEQAAEQIAx5ittGWP37t1LpVKPHj2CwMVYAQEQ6FoC5XL50aNHqVTq3r17DUCoV6rWm74Bk5AFBEAABDqYQDVpyxjb2dlJp9OLi4vv4w8EQAAEupLA4uJiOp1uwF8r7hz1StV603fw/QlNAwEQAIEGCBwjbRsoEVlAAARAAAQsAvVK1XrTWxVhAwRAAARA4JiABAACARAAARA4IYF6pWq96U9oHrKDAAiAQIcRgNe2wzoUzQEBEGgtAvVK1e+///43v/lNa7UB1oAACIBA+xCAtG2fvoKlIAACbUigXmlrGMaPP/7Yhg2FySAAAiDQEgQgbVuiG2AECIBApxKoV9r++OOPhmHAcdup4wHtAgEQOG0CkLanTRjlgwAIdDWBeqUtY+zw8FD4biFwu3rooPEgAAINEYC0bQgbMoEACIBAbQQakLaMMeG7/R5/IAACIAACdRKAtK3t7oRUIAACINAQgcakbUNVIRMIgAAIgEDVXyMDHhAAARAAgRMSgLQ9IUBkBwEQAIG6CMBrWxcuJAYBEACB+ghA2tbHC6lBAARA4GQEIG1Pxg+5QQAEQKAqAUjbqnhwEARAAASaTADStslAURwIgAAIqAQgbVUa2AYBEACB0yYAaXvahFE+CIBAVxOAtO3q7kfjQQAEnjkBSNtnjhwVggAIdBMBSNtu6m20FQRA4OwJQNqefR/AAhAAgQ4mAGnbwZ2LpoEACLQgAUjbFuwUmAQCINA5BCBtO6cv0RIQAIF2IABp2w69BBtBAATalgCkbdt2HQwHARBoSwKQtm3ZbTAaBECgXQhA2rZLT8FOEACBziAAadsZ/YhWgAAItCgBSNsW7RiYBQIg0KEEIG07tGPRLBAAgdYgAGnbGv0AK0AABLqFAKRtt/Q02gkCIHAmBCBtzwQ7KgUBEOhaApC2Xdv1aDgIgMCzIABp+ywoow4QAAEQkAQgbSUJfIIACIDAKRCAtD0FqCgSBEAABHwJQNr6osEBEAABEDg5AUjbkzNECSAAAiBQOwFI29pZISUIgAAI1E0A0rZuZMgAAiAAAicgAGl7AnjICgIgAALHEYC0PY4QjoMACIBAMwlA2jaTJsoCARAAARcBSFsXEHwFARAAgVMlAGl7qnhROAiAQLcTgLTt9hGA9oMACDxbApC2z5Y3agMBEOgyApC2XdbhaC4IgMAZE4C0PeMOQPUgAAKdTQDStrP7F60DARBoNQKQtq3WI7AHBECgowhA2nZUd6IxIAACLU8A0rbluwgGggAItDMBSNt27j3YDgIg0H4EIG3br89gMQiAQBsRgLRto86CqSAAAh1AANK2AzoRTQABEGhdApC2rds3sAwEQKATCUDadmKvok0gAAItQwDStmW6AoaAAAh0BQFI267oZjQSBEDgrAhA2p4VedQLAiDQnQQgbanfSz8USkdNGgClglEoNamsDimmmXg7BInSjKNS4QcMGAVIx21C2nZcl6JBIAACLU3AX9reT+ief9dS+9Si9YQ+mfruWbet9INRKNqV7t+Z1G+t298b23qYDOt6/NPHjeVmxYJhS5PC2rSuj83lGyzLle10IRM9szdd9Tb1q4r3fkLWuJ+6pifuV1bkt78yZXP3lArGs3okcVa1vUijL3XQWHOUEWKzbayo1sjlhFOHTXS9Spz4WlBHhbUnhbStnRVSggAIgMDJCfhLW7rHiL/Npat69Pam+c2Ucco99eRW1FoC6Z7JO1xa8yzNkbZHxt5Gfq9QqxGudC6BWDrYzG42qpJdRZ/y84PLcnflzfqu4rXll5+E9dvfLGv8ylknZeQhtf3Sn2C/S4QZe/mNhkefchrabE9g25lndcGp3Z6GM9ZeRaMpIW0bJYd8IAACINAIAX9pa5fmFpT8iLynCgVsuy1ltiNx4LgX/UUhoB2v8Mk1q7yhpTf85KktFQxLZJvFWtK29AMJbzWXsMPU584DZvnFwt7Xm48pDoHHEPCABFvPm0Le4SQ2jyqNJZtuR/WrS5uGTFl0BySYtinOZrtG0XylQIlPfDYOudJUWbI4QgArpa2Zy4HLhFMqPN7+2q3AKL2SmFrq/Co7Tg4DW375SVi53xo/0m7r08tI66C1IVOp2Euqf50xqoKbSxuZWV2f/cI5iCwb1GAVWQjvVtkuK6VVv9ioHN7FgvEFVZWxqpIFWlml6co5wI+Z+x2jRY4QxpjF1vEagees3OOqjJcpTzTrGPMYutJaj0Min5f1FWectMp11lbC8S/TPGKd+JC2ggj+BwEQAIGuJ3Aiabv0eTIaCkWuhEO6Hrqe2pcKoPAgORnSQxORyGVdD8WXHnp6RAv5RUoVvsKTRabXzPAGKW5k36zfEp7afPJKJDSm65cjkSvTa/wFLpe2qbXpsFnXWGTuvqzraH/tjYg+ZpoXeWNNmsfL/zgVH9N1M6bC1gfrt9xBGKaT2C4tEg7poWtLm1wz5Re58VRLZPpzctZaapvML+ST16iJkQgRmlzMS+OoxuSduUgoxA/pkXfX5SHZbPqkZHVD9jGVynucSUR0YU8oMpf6OyUgwc5FvRl5O8NFv2lD8k4iTGDcL3yNz6dkgAFjbHMhrOs31gzRgqP1xFh44YEzdsWSX8zdy7LZfP8X64kJPRQh1HokkbGc4L5Gytzi89u16YgYJ9RXk7c3TZFo187TfZeaFC06WJsWY3giErmSFMEkzjE8mXwg+4cKSabejYQm+GiMzGU316YnQmHzLEjLdwrew/vx59ORCRoMNOwXeVWqVaKBdNTZC3bDHcPPERdklfPNUkSPp59aTIy1G3r4/U3ru7Wx//l0ZEycp6HIu+sZ80Tjx51DN/7Rttl+q/mXxchXzjjGzALdHVd5xtUMx7dMxgrbS9dD5gkeiqc+RkCC1bHYAAEQAIGuJnASaavr8ZU9oRq+JaU4+xX/8nRtaiycyAqFU9r7OK6HE+uq84wDL92fC09Mpb8V9AuZN3UZNesWPVLakm70CEjQrboK67fCenRpj4os5d8N2+YVtpPXrLs7FaJPSAMpsS1thTXi//1P4/pEQkjO/f8bD0UXTGV6tL0UteMiXL5PRdrup+J6+FbWEIr/cWY2rE99LrDQ62/LvNLeyqQeXvharVxsO5Kx2iD7m0oNt+wp7a2QuJextpvvK7iMbGLCaqDTBpeNT9NxfcoUs98sRehpYTYj+vrrhfBYYp3aruC15FdVaauH5MA6MrK3wjUYqZq1n74eir4nnyK+ob4yg8Lt2nl6S9rSN2dAwnepuD2G2eMvZsNjU2tCLJJ3MJz4ivdjaTsZpW/mYP/W7kf/4c3dq+pDgmJVZS/EP6OK/PvUk+3eUlQXGallxtqUPCtUTIxSWabTeRoaszqdq2E5dPlQCSfu87Obmq/HPxbnfWlvmUauqZqpxz07zn3G1QHHt8wSneyyNsZHbOWjl6O9Z/cFAQlnxx41gwAIdCOBE0nbuQ0LWSnzpnlf3L4d0d/Kmn4yOr69dEVXUlpZHBv7H0elgqEboRr1eIy0jacspx4jfxX3LBYzs7pwGcpaHlhKi8qXElMcVfSBTM515OSKqbytveZG9m1LiLtf69vS1u08Y8ZncdlGElIKEzLJax6bK1kjkG1TyR6pO3k78u9J1Ui4zGcC0cLSl7O6CXY94S27RUIbJm/4WvqG2XfKMFDw2jLO3csmWS55HS5GUmaRpW8Yq2akzF35eZS1g2jt2nk6f2lLxl9Pi6cQntRIX5ey7z7xsFyg5Oa3JzL6NYopw9tf2lIDI8mHdhvo3b4S4GEdsPvU+7GBj0lpP406R9+axVAb38zY5+lRfiEs20hPKbNZ5XGUEr8rfczqLEliKObA0eCMfsSfK0UN1BxxyB4kVhPUDX84/mVyVjQq5B81U31gkPtb4RPSthV6ATaAAAh0D4GTSFvpDOO0LAFKN3uKGbD/Kd4gB9jSt+upxcTUtYh4KS9ln1sfWCV7e21tYcGYJVb4RlYGSFCtB6m46b1zl+9wKwoDC/RCPK7MV2OsZHyTWXp3Nn4lwl8o24LG12t7P6FfXZGvp3m5G3Py7quoPTpCJqnT44QVlYZZKKpC9jG1wh7bcsLFX5FbvUYvzUX4gctUaZr83PsoyhUS+fkS90lUcWFKLZr9UggnpQRbXFb2gihRzSj20KMRPepUM1JaIz5LxvYXS3NvxiNXeEiDNT/Mrp2ns0YLfXN4bddv6dGPHV2Xf1f2uLOQKtLWZ3j7S9vKQWs3y6dPfaQtI2+6OD1JlNseXLtAVtFGZRDeT/AX/fYpTJFFwsHvbD7vFFERZae4IGsI8ZgK/ozq0de1wfEvs5IVYm2VzsUmCIAACHQzgVORtuG3UlnnX/5b2z0kcBu/mg6NRaYW09mN7cdGYc9eiMp9I7T0XKUEtF2kolBLrNCGw0NZj7QVgQSO4NfNxYgemkzcyWS/3jN+KGUVX50tELkNtkn3E/qVpW11cDVV2vpB9jW1wh7bcsIVT37l7LPsNndbKsJUbYu1TR6+xHohMyuAf7MUubK0Ta5Wi79Sgi2M3L0sy6P9Tp86hfBKaetnpMzNGDvaTEb00LVE6ovs5p5RKDbitV2/pUduO7quXmnrP7yrS1sLmtIixnz71E/aMnrSoIcl0rhq3K1dbEUbibz5fHU/oU/Mus/hB/t0Dts9yIuikWNL2/iiawhltymKw93XNcOhjN5lVp7gkLZ232ILBEAABLqaQPOlLbnxpjNy0g1ff8Drparrzqq8lFRusdQ16ld1mx9zrWtLNzzua7TnMJm9W/qKIhT4e2QqRA14cDlH9+/E9Ym5vPI2VtggfZBUoPJG2D8ggetFZTYPIzLmLCtF7bnbaBrMP1zJyNMmxIc/ZGqdt6k8AlOxp5R9S7riitnZMcercFaUc/9V8aSaZm9vLoTDC+8nZNM2F8KTS7dn5deGYm3dnngunqoZaVvD/YiKQHQFJJjhvzy9Qww5vLYk+uULfZ6U2JmC26nt/Ly2/sPbX9pWDFrjm2z2G6Pq8FNGiNMwCimJLmXvTDqiDhRO1Mbo0rb1ZqOQmbVibam5PuewsxbFa0vDKfJ3yvPAUUkuQe0+42qG418mDQZHxBGdEQhIUPoXmyAAAiDQtQSaL20Zn0Y2/dke/32vEk3BsebxKJjVGTOlf09NhaXMYowOTcxm9gzD2Mu+OxWxpzRR7F347cxjwxRetotUlGxJW8a2b0dprthT8jSVDjKzE3r8U/GK2X2jVaVt4X4irEeTDx7Ltb9EsKM6q6Zk3F+I6vL1NGOkIcKJzIG5+JdiEp8bF1/Z4yrZ2FyKj4XnNire0ZPlZJLpMFMQqYaJ3Za09YdcxVQ6ZM28MbKJSCgkg0A486sL6xwXI1v18K11bqsinhy22V+ov3TbflJ7uvoSXCnBFkaVvSAKpP2hUMScmVXcW4nbqy5QRd5G2sbwWVNydlTJWH+P+sp8kiFfsh6/vfnYMB5/nZq+Fg7bYojCHiaXt83gVq7zaLLUEWNHxuZt5WnHbgJV6idtqwxvHhE+ufKNWZXqB+Uj3xq0a7NhMTWzSp96suU0SPyFQiE5uVMhZG4W83MTenh6aX3PePxNZu5aJGzF2nKnb3g6LYauOH1sh66cekjl0BknvLaM0ZSv6MJ9g4aNgGbOH3X3dR1wfMsUVwlzmNBEt8tWCE1lU894D2Jtz7gDUD0IgECXETgFactY4WGKVl8Sf6HJ5IYyIcfiK1YXEmlcC1HZh0Lxj7YdaxJ9m5q6rOtyYpOiI3m5irRlRwZfXIxXMKYuvOW+0aoKUsgy03LxITyIYj0pvid0PbWiTCNjR/upqRDZxNdXcphU2ku/IUGEIrOfW+GbiiIhw8mk+qRtFchVTLXB8sXastZvgzF29Dj73iQ1g/9F3kiba18c77UVbkg+00t0LnlDpdyhPUpjbV1Y2QsiM9//5ebSNdOW0PUlue5UFSNFXvN/sQQVb0co/umKPY1MriRFhyKJzMaK6ePn+Qr3F2iJNrngQ2kvbY3h0JXZNWtCod0EyuYnbc1130yaznXWWGH9PV6VcOGrBTp6QRm0vn3qydbkQLapXmpzt/JhbKZvUURy5Nps6uG2YxAWtlPW0OXr1pkLfajWuqQtY4+zC8oYmpZjqKKvlXGou859FxzfMhkzF0oT43Vu/aF8Y6O0r0U2IW1bpCNgBgh0OYGdnZ10Or24uPh+p//VIm0bHAw0v9uxvLxHOdXSFEvCw1mZrVT0O1KRVkwyt966Vhyva4frJwkcef2tpV/i9Zzo7sjf4Bc/gFVM9ctCFvCfHvCKH2nQvJNk821CLUZWS1MqOaJNVBvdh3xtUDP5b1dDXSrx1xpemSmbx4ip15j8e+Hwe1V/8tlxXng9X5ElVmiKl6le+2q0sy44vmWe5snl1bhG9kHaNkINeUAABJpK4N69e6lU6tGjR+VyuakFt2JhpyhtW7G5sAkEuoAAqcZvVuJjXot+Wc3fS01ethaGZcZmclIPq0uPWQmxcUICkLYnBIjsIAACJySws7OTSqW6QdQKUJC2JxwwyA4CrUaA/K/6WGjKDC73M6+w/VGcQjAu8yXSxiLTdsCMXxbsb4QApG0j1JAHBECgeQTS6fSjR4+aV16rlwRp2+o9BPtA4BQJ8OCHBqIOTtGkjisa0rbjuhQNAoE2I7C4uNg9LlvGGKRtmw1QmAsCINBeBCBt26u/YC0IdB6B999/v/MaVaVFkLZV4OAQCIAACJyUAKTtSQkiPwiAwMkIQNqejB9ygwAIgAAIKAQgbRUY2AQBEDgDApC2ZwAdVYIACIBApxKAtO3UnkW7QKBdCEDatktPwU4QAAEQaAMCdUrbg+SI5vkXy1ZpLOWqmqBKXhwCARDocAKQth3ewWgeCIAACDxLAnVKW1Y0DOMJ/5eOalp0VWw/MYrV1lmHtH2WXYq6QKDNCEDatlmHwVwQAAEQaGUC9Upbuy3ZmKbFcvZ3uXXIhe+h/EqfbmlbfGIYSgJTLqu/w1cuGgZ99zikFoxtEACB9icAadv+fYgWgAAIgEDLEGimtC3vpiLBQM+54MXBXi0QjKR2TVeuQ9rufjASGIjlhLQ9zCde7NX6BoMXzgW03tGFLVPfZmPaSCJ5I9j7fDD4fEDrCU5lVeXbMvhgCAiAwIkJdIu0PTTfbmHxrxMPGRQAAiAAAv4Emidti7kbg4FLSVPOHm4lRrTB2Tyv2Za2ux+Srs0YwiAj9VJgMJ4xhALeSY709MeEhCWXcGDkg12RbndhRDs/I8rybwqOgAAItCWBZyZtDz4c0UaSBxakw61kJBig2QOBc5cSeeVVkpXEsXGYiw1o1nXJPPRwfkgbnLqnPnvnZ85r2iur6i5mpCY0LXCDXnRB2jqo4gsIgAAINJdA06RtcTWq9c9sKNZtzPT3xHIkW01p69S1jD2cD/ZEM8rlf+udoLj0s2xM65myox32kyPayLJ9R1JqwSYIgECbEzgjaXuwfCkw+HIyf1AsGlvLLytP5v48i5lYf8/I8r5MUd5Njmj9k+pljDG69AUC2njKfIY3Ex9sZPL8InZSabt/Z1K/tS5NwCdj9xO6nvAkUvrBKCj3mI5E52qj74Dwp+SbpRsO3E/o11LWGd2MFtMP6RZK3iXl4vZE/MDzweDoTKapdXvXetxeeuj3/IvbMqyyDMpVNUFllme2p2nSltRnLKNOJjtYJg8J9RpJ26EXh3u1c9FV5WJP+vVc8GLQ/vd8wPSpUECC4lzh0pYX9czAoCIQAIFnRKARaVsR01+smMxaucfhtSUBGl21PLXFXOx8IHpXkUHlopgy65wjW8xM9gdeMlXrwdJI4HwsYxXCgeXigf7XV5d1bXRFudzxmQOiKEjbZg8sX9G2n7qmT96xtUMnSlt3G33h+lLyzdEVB5ovbdfpSeu+NzyStldXzcn4O/nlG0OBnvHUE+/Ez25vUa4P8GSVFghIy6/OS5vLnq6RtlHHGzintA1cms98MB7oGUnuSTzZmPYn0eW7mYz6794u3VsgbSUkfIJAxxOoT9q6YvonVw/oibq4+orW/7oStfRgpr/Sb6oEJORn+10xA5lJM2CAittIDPdpvQM81r9vdH5TkbyHq9GeAF3snqTGxYbaQ8VMtKd/5gEzVkYdz+fy5VXVgIRiwfjB9vaQ88f1lfuCLH1W+sEwvPxDlNF9oFQwCqUjxor8mFKsanylu8m1x6xRocGYLFkWRE5EuxFyr/i0LDty7j8SB7iF1pEimczLr2gNT2M331u0lQrG5tJVPXp7kyDxGhtCZxlEG2brioW9rzcfW62w2uVIa6Y3u4LaKMGYTZOpS45+p1o8epAntg6YVXu0URZa8elNyU7m1bn8qBgzlvF8n5uDbIJvIaIeRzLZ3Vbv27bwLWu/xVmgodFbKhxsb+4VrBwWGGuPx4ZZoLMlUtqKElQfv1lCNTNkJZSGdy5tZGZ1ffYL9xkokpK0dXg6d5PD2vgn7odg0r6Os4znNgWo4wBNuS/Tg/PuRp5fCnlK87m8hpSyBfIzRwsEVC7m6lWgW9qSv0GpscL9QBdW4YEQDfFoobTixJ9N89qWc7EeR0BC8W40YAbIWrG2xVx8ULPmkO3MD2kTtteEMXYosUDanrhnUQAItAuBuqRtflaJHDAyFPz6Ib3mNy848sVRfrY/cNUZJ8CY6rXNTGrDMppfgKKjl3jcE2nWQWtOAM18PR/LyYsTY8z4ZDxwPhq9cOHb3QAAGU5JREFUHLDctxZqMuPi/BYlSo1rQ/M71hHrMlgl1vbrhfBYYt28kRtrN3Q9vLBplkDOufhndAvk+iy1Nh0OTUQil3V9LDJ3X97jj/bX3ojoY6HIlXBI1yNvZ6T8Wk/ok8k7c5FQKBIJ6boeeXdd5rFMZKUvZ/XwQt5WEpsLYX3qc37fLeST10J6KMyzhyYX8zI7lZz6ziqE7PR0We1/Ph0Z00ORSGQipEcS2admlsKD5GRIN9sSii89NAumZr69kroeCk1EqDGheOpbWUthe+l6yGxmKJ762DMgIZ+8EgmN6frlSOTK9BqPBWkInayUPnnrPk7Fx3RdttpqFyeeyDyW6V1GZlcmZdSEpbDNpFJd0VffHmRWRQpAjzbK6is+q0hbZ+fGP9qWnVvIL1LnhK/wkRaZXjM7uoIDNSGZejcSulwxJlVDrGQTvGsic9nNtemJUJgP19D1tOVgd46KyeQDaZEo4VZY13UzLMefmFqzXWAkpI9Fpn8lq6ICV7J34tbYVprP7FyXdT3kMkMJY/guZXbuwdq0aMtEJHIlqTxrm7YcI239ZtazYv7mcK/WO3iRnrYDFyZk3fyy8kFypEfTzLfkbPeTiWBP4NyF4GCfFrgQWzVDOT1Sqnzktoe0dRY4kZLuSYe0pclSg+ZkKW/3A2MsRwsEfDgV7DvHlw4IBG+o11VpQjM+myZtGdt6Z0gbiGWEZ31/NToQGFkSTO1rOivvJi8FAuL+wfg0speXzWURKIt5l4LXthl9izJAoD0I1CFtKaZf1YuMdojrifp0Xc7PuKILOAlF2tJFSWhii5F1lIL+HbJ4a/5iYOqelZAxtjv/l5qmDSak7pTHjNRL2tCCmP9KjuTgO6Ry+Z99GfQPSDjKL4TDC1/z9EXy/ehjkaVv+FdjbcrSUncmdT2cyApPT2H9VliPLonbzeb7YT2+siecpkY2MWG9jqeXpNah0t7KpC4rEuaJ/4vZ2bHwwgO5i6T2LJ/au5+K6+FbWUOo3seZWUvystqkLS85kRUCpbD+bjTyfp7MfLo2NWa1pbT3cVwPJ9b5YwTpP6uZR0b27bB+Y423uURNdjbTJ9aWFJg7IMEqk9WITtKgTypQn5DsGWOESJpyZGRvhWXgZoWREd0ysoq09e1BP4DcJLWNqrmObV9pSw9RVueW9lbiY+HEfeqc0v258MRU2nyiKGTelGqykgMVrsc/FkOvtLdM48t9djARFR1OfCW6cTsZtXuYfauMye9SZIM5wtnjL2bDY1Nr4lnIURG1z5eY2vji+txEeOozU84WvpzVrWfI+wl9TI/Isa02n1U3Q43QtaQtVVpzQMKT3dzsSO+FKXPFKCGJvGbWF7NTgwPjy6amLK6+EgiYrl+6rJDwEhcDxtiDmcGekaR4pC4bmfigfHlUkVLlY2+7pW3x3pRdICtu/XJEG5jJcxeCLW33uK6VRvi5H7i01ezVBnbmRzR6w3Uaf02Utqxs5Oi5gv/1nBu5mZduDvuaTk2gWcZy9QN7hrKmab3DN3Pmagnw2p5GZ6NMEGhJAnVIWwq7554LK0Z/oNdaYDv/er95wd+Y6T9vXn7VFlviVQQw+Hltc3GNJnhYVVwMnutx6GA+mWxo6AUt4FoG4cnyqDY4kzUD1XZXxmlpF9ORbF8G/aUtY+u39PD7XBKQMym19n5YqBbyp0r9SsIonrKcg+ybpYhwB5Ialol4uymXmZJut3P2PF+SaPFP7TIsTGTAe6azKf9eWH8rSxqHqoinpZ+VfNKfxaWGq03akjSPJDeF6LZqY9u3I2YV5r7tpSumne5mkgSZI8uomVLx81xkjHSI2kXTlpe0rRudWiQVaLqxaXcp86Ye/Uh6sUzb4qmDY4z0lbZVetAHYGUbVXMd237S9puliPkAYyanTnm30uHI9j+Oyk53ceCaVfSOKIOkHufgsIAnUyTv+i1LK0uPOA9RJQOupy21xpiRvi4fUe4nHKK5CjFX1erXb1ei8kGRz0GcEs9MIglp5TczJcYHZxUzGpa26oStgZEZ6VatNrNeNZ6x3Q+GVcGqxDPQ87R8tuZ56NlfzMGnC5CS0lmi/c0lbSsivbjbQEQsmNLWqWu5t8HH/UBeW9VJQCZJD6htQVO2Gpe2ftXzkAznxAu/pHJ/A1lkVnyCAAi0O4E6pe1oYtUZoH93y7wJPjBXZcm/3u+Iu5WAFGnLKNZ2MiOP0GfuRkCs0JKLa4NXlx1zAO5mcnvyUV08nC8dsD1aHSGmRD1Q+e4/K0yrNmlb+mpWv7K0zX1RJGrvJ4Srcv2WHrm9Lcx1CyPLY0Qb/N3xlUhE/JsISc3nIUC9XX0PZFCEcCELn8r9hH51Rb7B5VZszFUp2Tsg4dM4hRVE4rOLqfVvTY1L4oYCBux/oTFTxLibaSkz3t6sHTVRZYUEL2mrLi5REzp1kFCBSuvoK4VS2PZTVAIlqGqkR9OETqrWg2zfC2ATpC09M4SUJvCIAqnbSt+upxYTU9ciIo5FlbYKB94FMgvxooaoYSqSIX9gswaSn7Rdv6VHP7ZSUd78u1IEO0vgFfmNeVmp+Czur99JJm5MRkSYimXe/YQ446zU9EDI21KnGdYaHcd5bZVYW2NjfqRHvuCuMrOeseJeLnkzNv5ikL/Kp+gD/lLcvqxw++krTRG4aP0bpGd/ip11pbSa69pwSVuey3GdPFi+ZD7o0/XuheHhPu3cK8oCAdXcDxSQoCwIQIW73p25rGn4a/OlbcOmICMIgEBXEqhD2tIkraAjDKBYVB6kKXIguroa6wnOP+Qod1JTN1Lm+tgUNBXU5OIGFBSrLj6oxDDsLgxpLzvmxBbticK0gLc2Yi7gzaOwpmS42O78C+5VEXLxgIxtsO8s1by23CU5mfpue+kKd0ySU2o2U9xcCNt+SrcwcuizePKrrPNvmwv/mqUto/haUi0PKDjCjLutuP2z+qUtnwK0t/lFKvnmZGhMj/OFC8hJ/FbKaXA2z4Wvu5kOaTurPFE0S9r6oVNPSg9pG190mZ/dfiq0na+RHk2zpW01M0oFN8DmSNuJWXcfPNgvMWb8ajo0FplaTGc3th8bhb07k89M2loPcoJ+VWlbjZjZeU/XpkN6ZCqZzua3D4zCnqK8XW5gxozPpyxpW48ZjUhbegFiTTj1n1lvpCZ6e4LjN5cz2a2DJ8Vdez6sfVnhLaWvozdXXc/lWxQn6kqpjmp120PauhcIUKVtz8j83eR4T2DkQ3mZJWnr536AtFVRYxsEQKCTCdQhbRmjOK6/nMmJmH4jP38p0B+X2pKx3YWhQF9v4IV58zpLc1UHo2kxhUiJ5meMlbfmX9AGr67Smizlg9Wrg1YIGV/6YHBiZUuI5oN0lMQsdyJR4Jk2ZOpmKiQ/MyB/m4bqGl12LeOTjUkBbd9ZqkpbRoGPU+8vTJrvbelr4nYyorzGdQsjS9pSOGYkKUS9GDBFOQndKyLW22sr3sO+lckofmLuG3MEJOx9FJWRr04f1dF6Ykz1a9oDtySXB2CMFb6YFq+VqZzpjJwixNWvTOZupiVtXQHBjFEhtQckeHptq6GzmyB0pOKtLGXf0iN/Z3rTKd1RyZxiX9VIapri47S/VjXDE2ATpO3ekl8fqO8KKGLAGZCgcGiy15aAOCIByEQzDsTlta1KzO4517OZOyDB4WC2fMnHmGFF65oxxA1KWx4ywF2w/jPrc3E1bN8dkKAsaFDMXA0Ef2kF+DNWLhbN1032BcjG4rHlkraMr2WoRKfIJWBILMt1bYvZ2KAm55BVcz9A2noQxy4QAIGOJFCXtGXlg8zrMqafftB7Wf6gN2dDLgPHO67dT6JDfSJKQP31b574IDPzojk7oPcFayYxHSpuJicu8N8p0zStbzhxj3s+VSEre8ISu/nX+zV9WYkP5CnIGaxNpIuq06S6tOVOI2v2t1gPQbfjX0lhuH6ywZK2YkrN1YX1p/x1v7G5RHO/1vmX2r22jO0tRcdCoTE1bJdPIYqviKgMKngsPLchggr4Sg7xpc0DwzjYTL0xGRZOXwnI/HyYDOuTK//Os5SMzNthfZrHN/JpZNOf7fHFuUo0YUi+KXY305K2oplyLhfN+7lsxV24aqVY2PDbmccVi3+Z6WpCp5bp8tqKaWTRhfsGNezI2LxtT4OjkE3VSFqXQqqfrxfCenj2iz3DMPa+mpuKWJPP+KQozx70A8jjfZU2ljZvxyffXHO8zhctIICzGb4unPxPPEbwaWTTadG5pYPMrJx9qM7QKv17aiqsS0VewcGlOAmsQy+aEJ3JLBHJjyplFjKzY3xS2pGkOjFnTt5xlmBOI/MkpvabOtuvuJe6EbYWuKCYn7FQ6LqYfFkyvkqErRmWVcyg0Gc9fnvzsWE8/jo1fY1GvfzREIoXn1ze9lqXjznWtX1i7GbnJwas6FjfmfW04Iv8rdfiw+Xx834BCWIa2dCMmIFXNvLvWMu7NChtGf+5xdhdcQUkH4BcB8CWtjSx9sORgPwxG3/3A6StOiixDQIg0MkE6pO2goRfgD5N5KpwnVrLKXpSPDQMO97AmeLQ8Fpd0pmm/m/HSFvuItVnvxTCUbzadvhB3ZpP0Wfs6HH2vUkSUfwv8kbaXC2hHq+tcARKESPbV9pLv0GT/OkvFJn9XNFO365NiyNjkcSX+RVHNKrMzsy1q8wCriXz8img8DBlZqeSJ5Mb5gF3MxVpa66QJcqKzK0/lEsv2bXJrW9TU5d1WkSNrzvhLrMmdLIo+lTkl9z9OLugEJ+2iLuN/EJdoUwsqsVZXl/a/kL5QSzfHvQFyBxtNNamdX0iqXiSpaEE0PUn1VhhO2V1rk4ru5lLYYhFwUSmyFzq7yxncwUHl+I8obRlrLSXtkZF6MrsmrXum6sieqLwG/Oy4fRpA6fF8u4kbeXNC1z/Fa1MR380hu3plb5mqOM5kshs2Cu7UWX3F/gKe47ZacIakrbKX+D5oeiHeXP6PM2yt3772zmzXiwKxjMGLkwlf2n9YriHYD3IzAybT/Na4MLEsrkAoUdKFZDcdnttKWTiHq3yLSpXf5Hc8tryvLS2q6m/fd0PkLYSMz5BAAQ6nUAj0raSCYndg0x8UMa2VqZolT3HSduT28kXmZcv9hsojiakizV03Zlp9X7vgktFqcXdeZTvYvV7rwJowXyfH5JQ8js3/Y1xpmM12SbyNIqOfqrAq138NzL4AVWay7pKfsz8zKgCsBb+Li6ur9QHVgSLfayRrrFzn2jLl2plqX7E1JQ+DTST+B/1N6NUkrNL1Xr4dpVDFWldO/we3Ot51C4a/o/srupq+1r0/BWJKnn9WlElS/MOYRpZ81iiJBAAgUYINEfaZmMBTet9YUauEdmIJc8mz+lL2xO0o/SD8firhFzO9gQFIauLQKW0dSXA144mYBiG4q7Fpk3gjTfeaHrPQ9o2HSkKBAEQqItAc6RtXVWeaeIWlrZ8EpgeiixYP292pqQ6qnJI247qTjSmpQlA2rZ098A4EOgCApC2XdDJaCIIgAAIPCsCkLbPijTqAQEQ8CYAaevNBXtBAARAAAQaIABp2wA0ZAEBEGgiAUjbJsJEUSAAAiDQ7QQgbbt9BKD9IHDWBCBtz7oHUD8IgAAIdBABSNsO6kw0BQTakgCkbVt2G4wGARAAgdYkAGnbmv0Cq0CgewhA2nZPX6OlIAACIHDqBCBtTx0xKgABEKhKANK2Kh4cBAEQAAEQqIcApG09tJAWBECg+QQWFxfL5XLzy23VElt4XdtWRQa7QAAEQKB2ApC2tbNCShAAgdMgkE6nHz16dBolt2aZkLat2S+wCgRAoEMIQNp2SEeiGSDQtgR2dnZSqVT3OG4hbdt2qMJwEACBdiAAadsOvQQbQaDDCdy7dy+VSj169KgbBG6bSNtSwSiUmjXuSj8USkfNKgzlgAAIgEA1ApC21ejgGAiAwLMisLOzk06nFxcX3+/0v6ZL21LBUFXoekKfTH13wn4rrE3r+thcvsFinCY9TIZ1Pf7p4wYLQzYQAAEQqIcApG09tJAWBEAABE5KoOnSdj2h64n7lllNkbasdLCZ3WxYjDpNOjL2NvJ7BctCbIAACIDAKRKAtD1FuCgaBEAABCoIHCttyeVpGEahqGQtFYwflPCAIxkuQBuZWV2f/YJy8BRS2opi1FyyvNIPfuWXCgfbm0KEFmVAAlXh+lMiFeRRe5eHSdxaNSBBNlFpEmNmjZ7HpOn4BAEQAIHjCEDaHkcIx0EABECgmQSqSttv16Yjun45ErkSDumhydubpvi7n9CvpfYtM75LTeqJdcbYwdo0pdRDE5HIlSSPHyBpu/R5MhoK8UL00PXUviUrC/nktZAeCkcilGlyMW/6Uqn8ZOpWWNd1/RYVvH9nUmwwqsv1x6tmrPAgORniVUdC+lhk+lfcQB+TrBiJ/c+nI2N6KBIhuyPTa9+araIa315JXQ+FJvihUDwlD1ntxgYIgAAIHEsA0vZYREgAAiAAAk0kUEXa7qevh6LvSbn5zVLUipr1k7Zkl/PtP/+qx1f2hCj+NhUf02e/El/2U3E9fCtrCKX7ODMb1qc+N6iM+wld1+Mfm5kc0lZtejE/N6HH73AJW1yfmwhPfWbq7cKXs/pYYt3U0JUmmeG/pY258JhlXGH77yb1iYVNnoukrR5OZLk9R0b27bB+Y41/US3ANgiAAAgcQwDS9hhAOAwCIAACTSVQRdo66znK2kG0dUrbuQ2rqFLmTX1SiNFvliJ6PP3UOsSMz+KmM/h+Qg8vbNpHFK+tvbOwfiscfjvrHTT77YotxD3UtpC2ZEz4PWVy2lF+IWwGCpO0jafs8N77iRPMY7ONxhYIgEC3EYC07bYeR3tBAATOlkBVaVsytr9YmnszHrnCX8pb88Pqk7aOFRLWb0lpez+hX12xoxoYYxtzughscJWvBiRIWvt34vpEYl0VtsX99TvJxI3JyJVIaEzXLR+zr7TdT13TE1lZIn0+TsVN8+wQCHGcHMlm5IOaAdsgAAIgUJ0ApG11PjgKAiAAAs0l4C9tjzaTET10LZH6Iru5ZxSKDXtt/aXtlaVttTU1S1sRSOAIfn26Nh3SI1PJdDa/fWAU9lKTtUnb2S/VyWOQtmp/YBsEQKAJBCBtmwARRYAACIBAzQT8pS1N2JrNWAsjuAIS7EhWERpreTR9A1uFSbbXlsp3BCTsfRQ141mre20L64kJPf6pw+FL4bmqUK4pIIGt33IGJBSzs2Phha/JUnhtax5CSAgCIFCNAKRtNTo4BgIgAALNJuAvbY21KWseVclYfy+qWwEJdEiP3958bBiPv05NXwuH7Zf120tX9MnlbffiX9JuW9qyQuZNnWaYcfVsbC7Fx8JzG9yHWkXaHtHks9Aba/v2CmD8p8W+XrAnhBX3UjfCSkCCv0k0Ny6c+MqgWkuPM2+F9bi58oO/tC1t3o5PvrnmVNayefgEARAAAScBSFsnD3wDARAAgdMl4C9tGRMLY/GltkLxT1fsaWTqoUgis7FiLv7FTS3cX6C1vPQpvqCAXNdWtkKRtoyV9tJvRMylvEKR2c+lXKwibT0W/xIBD4X84iRVq+v6WGTuTlIJSGBVTDI2aMkw8ReKJeV6EFW8tgb9NNpE0hFKIVuHTxAAARBwEYC0dQHBVxAAARA4VQLVpC1VzH8Ewf4FBIctpZIVruDYTy5Q/0PupPTjCOpP81Ycr2MH/cACd+J65KliEs/m2xaPsrALBEAABGokAGlbIygkAwEQAIGmEDhO2jalEhQCAiAAAt1KANK2W3se7QYBEDgbApC2Z8MdtYIACHQJAUjbLuloNBMEQKBFCEDatkhHwAwQAIHOJABp25n9ilaBAAi0KgFI21btGdgFAiDQEQQgbTuiG9EIEACBtiEAads2XQVDQQAE2pEApG079hpsBgEQaF8CkLbt23ewHARAoA0IQNq2QSfBRBAAgQ4iAGnbQZ2JpoAACLQeAUjb1usTWAQCINDJBCBtO7l30TYQAIEzJwBpe+ZdAANAAAS6igCkbVd1NxoLAiDwrAlA2j5r4qgPBECguwlA2nZ3/6P1IAACp0wA0vaUAaN4EAABEHAQgLR14MAXEAABEGguAUjb5vJEaSAAAiBQnQCkbXU+OAoCIAACJyIAaXsifMgMAiAAAnUSgLStExiSgwAIgEA9BCBt66GFtCAAAiBwUgKQticliPwgAAIgUIUApG0VODgEAiAAAk0nAGnbdKQoEARAAARsApC2NgtsgQAIgMDpE4C0PX3GqAEEQKCLCUDadnHno+kgAAJnQADS9gygo0oQAIHuIQBp2z19jZaCAAi0AgFI21boBdgAAiDQsQQgbTu2a9EwEACBliQAaduS3QKjQAAEOoUApG2n9CTaAQIg0B4EIG3bo59gJQiAQJsSgLRt046D2SAAAm1KANK2TTsOZoMACLQHAUjb9ugnWAkCINApBCBtO6Un0Q4QAIGWJABp25LdAqNAAAQ6lgCkbcd2LRoGAiDQCgQgbVuhF2ADCIBA9xCAtO2evkZLQQAEzoAApO0ZQEeVIAACXUwA0raLOx9NBwEQOH0CkLanzxg1gAAIgIBNANLWZoEtEAABEGg6AUjbpiNFgSAAAiBQhQCkbRU4OAQCIAACJyUAaXtSgsgPAiAAAvUQ+P8AIqjDU02QB/IAAAAASUVORK5CYII=;" vertex="1" parent="1">
          <mxGeometry x="20" y="550" width="690" height="154.99" as="geometry" />
        </mxCell>
      </root>
    </mxGraphModel>
  </diagram>
</mxfile>
